<?xml version="1.0" encoding="UTF-8" standalone="no"?>
<svg
   xmlns:dc="http://purl.org/dc/elements/1.1/"
   xmlns:cc="http://creativecommons.org/ns#"
   xmlns:rdf="http://www.w3.org/1999/02/22-rdf-syntax-ns#"
   xmlns:svg="http://www.w3.org/2000/svg"
   xmlns="http://www.w3.org/2000/svg"
   xmlns:sodipodi="http://sodipodi.sourceforge.net/DTD/sodipodi-0.dtd"
   id="svg3336"
   version="1.1"
   width="247" height="257" viewBox="-1 -1 280.52542 291.8812">
  <metadata>
    <rdf:RDF>
      <cc:Work rdf:about="">
        <dc:format>image/svg+xml</dc:format>
        <dc:type rdf:resource="http://purl.org/dc/dcmitype/StillImage"/>
        <dc:title>Wug test</dc:title>
      </cc:Work>
    </rdf:RDF>
  </metadata>
  <g
     id="g5273"
     style="fill:none;fill-rule:evenodd;stroke:#000000;stroke-width:5;stroke-linecap:butt;stroke-linejoin:miter;stroke-miterlimit:4;stroke-dasharray:none;stroke-opacity:1">
  <path
     transform="translate(-0.13889826,-0.44155348)"
     id="path5268"
     d="m 182.33205,54.938493 c -0.63659,-0.195846 -1.54144,-0.58549 -2.01078,-0.865874 -2.52927,-1.510954 -4.31981,-5.186504 -4.94404,-10.148848 -0.30658,-2.437187 -0.29986,-8.438057 0.0116,-10.936566 0.70429,-5.638179 2.84559,-9.324567 6.20811,-10.687644 1.04809,-0.424868 1.52831,-0.496245 3.33864,-0.496245 1.85842,0 2.26609,0.06418 3.36637,0.529974 3.08824,1.307375 5.11007,4.549901 6.01027,9.639079 0.41319,2.335882 0.41319,10.711203 0,13.047086 -0.8977,5.074984 -2.92549,8.336077 -5.98617,9.626934 -1.63471,0.68945 -4.28355,0.818519 -5.99464,0.292104 z"
     style="fill:#000000;fill-opacity:1;stroke:#000000;stroke-width:1.03326547;stroke-miterlimit:4;stroke-dasharray:none" />
  <path
     d="m 275.1942,25.700968 c 0,0 -6.6446,-14.98987 -62.29303,-21.9851511 -55.64846,-6.995273 -90.44704,18.2941181 -90.44704,18.2941181 0,0 -15.35131,8.121152 -27.809919,24.443474 -12.45861,16.322309 -20.18884,61.689551 -15.46543,89.173331 4.61491,26.85244 7.47517,26.31556 8.72103,40.63922 1.24586,14.32366 -12.4586,25.64935 -27.40893,34.64327 -14.95033,8.99394 -60.21658978,13.99056 -60.21658978,13.99056 0,0 119.55534878,1.35138 144.51981878,-0.99933 39.54282,-3.72343 40.51207,-5.97719 68.10706,-17.65474 5.41579,-2.29184 21.17963,-11.32569 28.65479,-27.31489 7.47516,-15.9892 9.96688,-41.63855 9.13631,-49.63315 1.13942,-32.298762 -34.51517,-70.755382 -0.83057,-91.604802 7.69685,-4.833374 25.3325,-11.99191 25.3325,-11.99191 z"
     id="path4301"
     sodipodi:nodetypes="cscsssscsssccc" />
  <path
     d="m 101.65437,285.39648 c 0,0 24.24065,3.21262 48.48131,1.46028"
     id="path3358" />
  <path
     d="m 182.40787,216.7633 c 0,0 16.79323,33.87851 18.54556,50.23365"
     id="path3360"
     sodipodi:nodetypes="cc" />
  <path
     d="m 196.28054,267.58106 c 0,0 32.71028,-7.59346 42.05607,-14.01869"
     id="path3362" />
  <path
     d="m 275.1942,25.700968 c 0,0 -6.6446,-14.98987 -62.29303,-21.9851511 -55.64846,-6.995273 -90.44704,18.2941181 -90.44704,18.2941181 0,0 -15.35131,8.121152 -27.809919,24.443474 -12.45861,16.322309 -20.18884,61.689551 -15.46543,89.173331 4.61491,26.85244 7.47517,26.31556 8.72103,40.63922 1.24586,14.32366 -12.4586,25.64935 -27.40893,34.64327 -14.95033,8.99394 -60.21658978,13.99056 -60.21658978,13.99056 0,0 119.55534878,1.35138 144.51981878,-0.99933 39.54282,-3.72343 40.51207,-5.97719 68.10706,-17.65474 5.41579,-2.29184 21.17963,-11.32569 28.65479,-27.31489 7.47516,-15.9892 9.96688,-41.63855 9.13631,-49.63315 1.13942,-32.298762 -34.51517,-70.755382 -0.83057,-91.604802 7.69685,-4.833374 25.3325,-11.99191 25.3325,-11.99191 z"
     id="path3348"
     sodipodi:nodetypes="cscsssscsssccc" />
  <path
     style="stroke-width:5.43626785"
     d="m 130.46175,206.69806 c -11.63566,68.49361 -24.16637,79.30839 -24.16637,79.30839"
     id="path3356" />
  </g>
</svg>